<svg id="Capa_1" enable-background="new 0 0 512 512" height="512" viewBox="0 0 512 512" width="512" xmlns="http://www.w3.org/2000/svg"><g><path d="m59.228 85.814c5.661-2.026 11.589-3.274 17.619-3.709 5.465-.395 10.094-4.013 11.793-9.216 8.987-27.513 34.481-45.999 63.439-45.999 17.673 0 34.333 6.854 46.912 19.299 5.189 5.134 13.634 5.133 18.826 0 12.577-12.445 29.238-19.299 46.911-19.299 28.959 0 54.452 18.486 63.438 45.998 1.7 5.204 6.329 8.822 11.794 9.217 36.601 2.643 64.271 34.669 61.683 71.392-2.253 31.966-26.987 57.804-58.81 61.437l-.671.074c-19.318 2.015-33.886 18.079-33.886 37.367v5.167c0 4.139 3.355 7.494 7.494 7.494s7.494-3.355 7.494-7.494v-5.167c0-11.587 8.792-21.243 20.452-22.459l.816-.089c38.995-4.452 69.301-36.109 72.062-75.275 3.144-44.605-30.201-83.551-74.513-87.314-11.291-33.144-42.244-55.336-77.354-55.336-21.123 0-41.062 7.991-56.325 22.536-15.263-14.546-35.201-22.536-56.324-22.536-35.11 0-66.062 22.191-77.354 55.336-7.027.597-13.934 2.098-20.548 4.464-3.896 1.394-5.925 5.684-4.531 9.581 1.396 3.898 5.686 5.926 9.583 4.531z"/><path d="m492.659 421.647-2.394-1.386c-8.959-5.186-19.168-7.927-29.521-7.927-9.156 0-18.319 2.177-26.5 6.294-2.863 1.442-6.038 2.263-9.243 2.411v-14.238c3.789.59 7.025.899 9.729.914.147 0 .292.001.439.001 42.167-.001 76.591-34.184 76.829-76.404.238-42.367-34.035-77.029-76.402-77.268-.067 0-.135 0-.204 0-25.534 0-102.294 26.548-165.434 50.128-.181-7.247-6.097-13.11-13.395-13.151l-87.935-.495c-9.207-.044-18.69 1.69-28.135 5.176-5.025 1.855-10.314 2.782-15.715 2.749-5.404-.031-10.681-1.015-15.683-2.926-.188-.072-.377-.132-.565-.203v-42.948c0-19.289-14.566-35.353-33.883-37.366-32.093-3.319-57.24-29.321-59.485-61.524-1.328-18.89 5.049-36.844 17.956-50.554 2.837-3.014 2.694-7.757-.32-10.594-3.013-2.836-7.756-2.695-10.594.32-15.808 16.792-23.62 38.768-21.994 61.88 2.752 39.452 33.561 71.314 72.884 75.381 11.657 1.215 20.448 10.871 20.448 22.459v38.828c-4.203-.741-8.385-1.146-12.523-1.169l-9.001-.051c-.025 0-.051 0-.077 0-7.401 0-13.445 6.001-13.489 13.414l-.285 50.724c-.042 7.438 5.976 13.523 13.414 13.565l9.001.051c.134 0 .267.001.402.001 9.095 0 18.425-1.741 27.733-5.177 5.025-1.854 10.295-2.771 15.715-2.749 5.403.031 10.68 1.015 15.684 2.926 9.407 3.593 18.853 5.441 28.076 5.493l87.934.495h.08c3.573 0 6.938-1.382 9.481-3.897 2.464-2.435 3.859-5.656 3.982-9.102 22.919 8.852 50.041 19.035 75.904 28.028h-133.498c-12.397 0-22.483 10.086-22.483 22.483v14.803c-3.204-.148-6.379-.97-9.243-2.411-8.178-4.117-17.341-6.294-26.499-6.294-10.354 0-20.563 2.741-29.522 7.928-18.572 8.178-18.569 35.153 0 43.328 8.96 5.186 19.168 7.928 29.522 7.928 9.157 0 18.32-2.177 26.499-6.294 2.864-1.442 6.039-2.263 9.243-2.411v14.803c0 12.397 10.086 22.483 22.483 22.483h38.38c4.14 0 7.494-3.355 7.494-7.494s-3.355-7.494-7.494-7.494h-2.777c.06-.758.103-1.542.103-2.386 0-7.144-2.332-11.11-4.035-14.006-1.308-2.226-1.965-3.343-1.965-6.403s.657-4.178 1.965-6.403c1.703-2.896 4.035-6.862 4.035-14.006s-2.332-11.11-4.035-14.006c-1.308-2.226-1.965-3.343-1.965-6.403s.656-4.176 1.965-6.401c1.703-2.896 4.035-6.862 4.035-14.005 0-.828-.04-1.601-.098-2.347h119.225c-.062.767-.096 1.575-.096 2.43 0 7.144 2.332 11.11 4.035 14.006 1.308 2.226 1.965 3.343 1.965 6.403s-.657 4.178-1.965 6.403c-1.703 2.896-4.035 6.862-4.035 14.006s2.332 11.11 4.035 14.006c1.308 2.226 1.965 3.343 1.965 6.403 0 3.061-.657 4.178-1.966 6.404-1.702 2.896-4.034 6.862-4.034 14.006 0 .809.034 1.57.09 2.3h-78.887c-4.139 0-7.494 3.355-7.494 7.494s3.355 7.494 7.494 7.494h114.503c12.397 0 22.483-10.086 22.483-22.483v-14.803c3.205.148 6.38.97 9.244 2.412 8.179 4.117 17.343 6.294 26.499 6.294 10.353 0 20.561-2.742 29.521-7.928l2.394-1.385c7.322-4.238 11.692-11.819 11.692-20.279 0-8.465-4.371-16.046-11.692-20.284zm-237.948-67.919-86.436-.487c-7.417-.041-15.092-1.557-22.812-4.506-6.691-2.555-13.739-3.872-20.946-3.913-.001 0-.001 0-.001 0-.114 0-.227-.001-.342-.001-7.089 0-14.035 1.237-20.647 3.677-7.753 2.862-15.414 4.279-22.862 4.249l-7.501-.042.267-47.727 7.503.042c7.418.042 15.093 1.558 22.812 4.506 6.689 2.555 13.737 3.872 20.947 3.913 7.214.028 14.27-1.197 20.989-3.676 7.751-2.862 15.429-4.296 22.862-4.249l86.435.486zm-65.119 94.096c-5.534.154-11.04 1.523-15.984 4.013-6.098 3.07-12.93 4.693-19.758 4.693-7.72 0-15.332-2.044-22.013-5.912-8.936-4.097-8.931-13.289.001-17.384 6.68-3.867 14.291-5.911 22.012-5.911 6.828 0 13.66 1.623 19.758 4.693 4.944 2.49 10.45 3.858 15.984 4.013zm43.189-46.735c0 3.06-.656 4.177-1.965 6.402-1.703 2.896-4.035 6.862-4.035 14.005 0 7.144 2.332 11.11 4.035 14.006 1.308 2.226 1.965 3.343 1.965 6.403s-.657 4.178-1.965 6.403c-1.703 2.896-4.035 6.862-4.035 14.006s2.332 11.11 4.035 14.006c1.308 2.226 1.965 3.343 1.965 6.403 0 .959-.072 1.715-.201 2.386h-20.506c-4.133 0-7.494-3.362-7.494-7.494v-71.379c0-4.133 3.362-7.494 7.494-7.494h20.513c.125.662.194 1.407.194 2.347zm202.578-132.056h.153c26.729.15 49.449 17.324 57.936 41.163-14.538-10.619-35.159-21.699-58.045-21.828-.127 0-.251-.001-.381-.001-20.954 0-78.467 9.375-128.267 18.261 66.844-24.099 112.823-37.595 128.604-37.595zm-.391 34.323c.118 0 .236 0 .351.001 20.076.113 38.917 11.173 51.082 20.313l-183.728-1.087c50.608-9.118 111.425-19.227 132.295-19.227zm51.355 35.303c-12.264 8.996-31.227 19.833-51.315 19.745-20.617-.116-82.135-11.066-133.028-20.836zm-76.31 138.956c0 4.133-3.362 7.494-7.494 7.494h-20.522c-.118-.651-.184-1.382-.184-2.3 0-3.061.657-4.178 1.966-6.404 1.702-2.896 4.034-6.862 4.034-14.006s-2.332-11.11-4.035-14.006c-1.308-2.226-1.965-3.343-1.965-6.403s.657-4.178 1.965-6.403c1.703-2.896 4.035-6.862 4.035-14.006s-2.332-11.11-4.035-14.006c-1.308-2.226-1.965-3.343-1.965-6.403 0-.979.075-1.748.209-2.43h20.497c4.133 0 7.494 3.362 7.494 7.494zm8.3-87.361c-4.063-4.016-9.643-6.501-15.794-6.501h-8.62c-25.798-7.668-57.82-19.021-87.404-30.068 49.991 9.501 107.803 19.59 128.429 19.707.136 0 .268.001.404.001 22.727-.001 43.315-10.783 57.886-21.177-8.714 23.639-31.466 40.511-58.045 40.511-.116 0-.237 0-.353-.001-3.688-.02-9.248-.856-16.503-2.472zm66.837 58.979-2.393 1.385c-6.681 3.867-14.293 5.912-22.013 5.912-6.828 0-13.66-1.623-19.759-4.693-4.944-2.489-10.449-3.858-15.984-4.013v-11.796c5.535-.154 11.04-1.523 15.983-4.012 6.099-3.07 12.932-4.693 19.76-4.693 7.72 0 15.331 2.044 22.012 5.911 7.436 3.548 9.491 10.762 2.394 15.999z"/><path d="m136.738 246.011v23.699c0 4.142 3.357 7.5 7.5 7.5s7.5-3.358 7.5-7.5v-23.699c0-4.142-3.357-7.5-7.5-7.5s-7.5 3.358-7.5 7.5z"/><path d="m179.515 246.011v23.699c0 4.142 3.357 7.5 7.5 7.5s7.5-3.358 7.5-7.5v-23.699c0-4.142-3.357-7.5-7.5-7.5s-7.5 3.358-7.5 7.5z"/><path d="m222.291 246.011v23.699c0 4.142 3.357 7.5 7.5 7.5s7.5-3.358 7.5-7.5v-23.699c0-4.142-3.357-7.5-7.5-7.5s-7.5 3.358-7.5 7.5z"/><path d="m265.067 246.011v23.699c0 4.142 3.357 7.5 7.5 7.5s7.5-3.358 7.5-7.5v-23.699c0-4.142-3.357-7.5-7.5-7.5s-7.5 3.358-7.5 7.5z"/></g></svg>