<svg id="Line" height="512" viewBox="0 0 256 256" width="512" xmlns="http://www.w3.org/2000/svg"><path d="m101.119 96.217a17.05 17.05 0 1 0 -8.787-22.455 17.012 17.012 0 0 0 8.787 22.455zm-3.748-20.251a11.55 11.55 0 1 1 -.175 8.839 11.567 11.567 0 0 1 .175-8.839z"/><path d="m119.9 113.263a10.451 10.451 0 1 0 5.766-5.543 10.462 10.462 0 0 0 -5.766 5.543zm7.77-.422a4.95 4.95 0 0 1 6.338 6.594 4.95 4.95 0 1 1 -6.338-6.594z"/><path d="m134.06 100.892a10.45 10.45 0 1 0 -5.386-13.763 10.429 10.429 0 0 0 5.386 13.763zm-.346-11.558a4.95 4.95 0 1 1 2.551 6.519 4.957 4.957 0 0 1 -2.551-6.52z"/><path d="m231.019 110.668c-.014-.5-.037-1-.066-1.5a17.047 17.047 0 1 0 -13.718-31.209q-.2-.207-.4-.412l5.38-6.411-.339-3.874-19.383-16.262-3.874.339-10.132 12.072a49.275 49.275 0 0 0 -6.5-.432h-33.156a19.272 19.272 0 0 1 -19.25-19.25v-22.029h-5.5v22.03a24.778 24.778 0 0 0 24.75 24.75h33.155q1.107 0 2.2.056l-1.831 2.182.339 3.874 19.381 16.263 3.874-.339 2.246-2.677a17.038 17.038 0 0 0 15.811 22.681 10.431 10.431 0 0 0 -2.1 18.838 10.446 10.446 0 0 0 -12.829 13.153 17.03 17.03 0 0 0 -27.147 6.824v-3.765l-2.75-2.75h-25.3l-2.75 2.75v8.351a17.051 17.051 0 0 0 -33.346 1.667h-35.149l-3.835-99.288a5.894 5.894 0 0 0 -11.779 0l-3.831 99.287h-17.717a25.633 25.633 0 1 0 0 51.267h15.743l-.3 7.856a12.011 12.011 0 1 0 24 0l-.3-7.856h16.332a19.272 19.272 0 0 1 19.252 19.246v9.43h5.5v-9.43a24.778 24.778 0 0 0 -24.75-24.75h-16.55l-1.554-40.267h34.983a17.049 17.049 0 0 0 33.3 1.431v8.351l2.75 2.75h25.3l2.75-2.75v-9.5a17.047 17.047 0 1 0 31.893-12.053q.317-.271.628-.548a10.432 10.432 0 0 0 12.215-16.5q.313-.689.6-1.389h.035a10.443 10.443 0 0 0 3.71-20.207zm-169.591 90.685h-15.955a20.133 20.133 0 1 1 0-40.267h17.508zm16.179 18.333a6.511 6.511 0 0 1 -11.2-4.765l6.113-158.409a.394.394 0 0 1 .788 0l6.112 158.41a6.458 6.458 0 0 1 -1.814 4.764zm57.028-49.917a11.55 11.55 0 1 1 11.55-11.55 11.563 11.563 0 0 1 -11.551 11.549zm41.8-1.65h-19.8v-19.8h19.8zm21.45-1.218a11.55 11.55 0 1 1 11.55-11.55 11.563 11.563 0 0 1 -11.551 11.549zm5.62-82.027-15.168-12.728 12.727-15.168 15.168 12.727zm9.23 8.6a11.55 11.55 0 1 1 11.55 11.55 11.563 11.563 0 0 1 -11.551-11.548zm6.325 50.875a4.95 4.95 0 1 1 4.95-4.95 4.955 4.955 0 0 1 -4.951 4.952zm8.25-18.975a4.95 4.95 0 1 1 4.95-4.95 4.955 4.955 0 0 1 -4.951 4.952z"/></svg>