<svg id="Capa_1" enable-background="new 0 0 512 512" height="512" viewBox="0 0 512 512" width="512" xmlns="http://www.w3.org/2000/svg"><g><g><path d="m136.253 90.066v-7.658c0-4.142-3.357-7.499-7.499-7.499s-7.499 3.357-7.499 7.499v7.658c0 4.142 3.357 7.499 7.499 7.499s7.499-3.357 7.499-7.499z"/><path d="m121.255 196.504v7.658c0 4.142 3.357 7.499 7.499 7.499s7.499-3.357 7.499-7.499v-7.658c0-4.142-3.357-7.499-7.499-7.499s-7.499 3.357-7.499 7.499z"/><path d="m166.498 94.935-5.415 5.415c-2.929 2.929-2.929 7.677 0 10.606 2.93 2.929 7.677 2.927 10.605 0l5.415-5.415c2.929-2.929 2.929-7.677 0-10.606-2.928-2.928-7.676-2.928-10.605 0z"/><path d="m85.82 175.613-5.415 5.415c-2.929 2.929-2.929 7.677 0 10.606 2.93 2.929 7.677 2.927 10.605 0l5.415-5.415c2.929-2.929 2.929-7.677 0-10.606-2.928-2.928-7.677-2.928-10.605 0z"/><path d="m189.631 150.784c4.142 0 7.499-3.357 7.499-7.499s-3.357-7.499-7.499-7.499h-7.658c-4.142 0-7.499 3.357-7.499 7.499s3.357 7.499 7.499 7.499z"/><path d="m67.877 135.786c-4.142 0-7.499 3.357-7.499 7.499s3.357 7.499 7.499 7.499h7.658c4.142 0 7.499-3.357 7.499-7.499s-3.357-7.499-7.499-7.499z"/><path d="m161.083 175.613c-2.929 2.929-2.929 7.677 0 10.606l5.415 5.415c2.93 2.929 7.677 2.927 10.605 0 2.929-2.929 2.929-7.677 0-10.606l-5.415-5.415c-2.928-2.928-7.677-2.928-10.605 0z"/><path d="m91.01 94.935c-2.928-2.927-7.677-2.927-10.605 0-2.929 2.929-2.929 7.677 0 10.606l5.415 5.415c2.929 2.929 7.677 2.927 10.605 0 2.929-2.929 2.929-7.677 0-10.606z"/><path d="m495.236 250.431c7.851-9.144 20.342-30.563 15.795-71.271-.45-4.028-3.05-7.506-6.784-9.077-3.733-1.573-8.032-1-11.226 1.494-11.445 8.939-24.61 13.251-38.719 16.352v-100.16c0-20.44-16.629-37.069-37.069-37.069h-155.974v-13.321c0-18.807-15.301-34.108-34.108-34.108-18.808 0-34.108 15.301-34.108 34.108v13.321h-155.975c-20.439 0-37.068 16.629-37.068 37.069v16.194c0 4.142 3.357 7.499 7.499 7.499s7.499-3.357 7.499-7.499v-16.194c0-12.169 9.901-22.07 22.07-22.07h380.165c12.169 0 22.07 9.901 22.07 22.07v102.266c-5.019-3.719-10.246-7.206-15.625-10.389-60.946-36.057-129.576-30.09-171.184 3.737-15.635 12.711-16.151 36.423-1.092 49.608 2.711 2.372 5.306 4.94 7.948 7.946-33.412 9.233-64.273 21.599-92.842 37.249-45.922-26.694-95.594-43.917-151.51-52.527v-86.638c0-4.142-3.357-7.499-7.499-7.499s-7.499 3.357-7.499 7.499v196.732c0 20.44 16.629 37.069 37.068 37.069h80.226l-31.836 92.155c-7.395 21.406 8.442 43.753 31.175 43.753 14.057 0 26.585-8.927 31.175-22.213l23.044-66.704h63.716c.309 8.22 3.589 16.328 9.774 22.514 12.401 12.4 32.485 13.103 45.725 1.69l1.343-1.158 15.082 43.658c8.712 25.221 42.449 30.246 58.038 8.369 6.268-8.797 7.84-19.699 4.313-29.909l-14.078-40.75c53.612 8.261 107.705-10.913 134.371-55.986 10.386-17.555 15.769-37.968 15.567-59.03-.176-18.37-4.593-37.359-12.793-55.269 1.15-1.116 2.266-2.277 3.326-3.511zm-248.976-199.731h-38.22v-13.321c0-10.537 8.573-19.11 19.11-19.11s19.11 8.573 19.11 19.11zm212.531 151.606c17.192-3.512 29.568-9.512 37.897-14.941.872 14.297.043 38.302-12.831 53.298-7.545 8.789-17.666 12.709-29.16 13.71l-27.105-27.104c1.067-16.921 21.923-23.068 31.199-24.963zm-7.908 80.372c-2.572 2.386-6.356 2.618-9.163.741-1.746-1.359-20.119-20.045-39.264-39.108-2.495-2.992-2.264-7.478.667-10.193 2.933-2.718 7.459-2.649 10.303.197l37.66 37.658c2.996 2.997 2.881 7.851-.203 10.705zm-188.927-87.658c36.64-29.789 98.457-35.377 154.085-2.465 3.802 2.249 7.515 4.672 11.129 7.22-7.307 5.782-11.035 12.401-12.89 18.208-7.281-2.068-15.391-.389-21.349 5.134-6.504 6.025-8.587 14.91-6.289 22.781l-15.445 6.46c-4.29 1.796-8.162 4.606-11.197 8.126l-90.547 105.029c-3.867-3.744-7.543-7.652-10.944-11.703-7.62-9.074-4.461-22.906 6.209-27.376 37.22-15.594 36.828-69.494-3.436-104.726-8.093-7.086-7.728-19.857.674-26.688zm-197.332 162.803h-27.556c-12.169 0-22.07-9.901-22.07-22.07v-94.909c50.056 7.952 94.889 23.076 136.429 46.035-31.741 19.24-60.545 42.815-86.803 70.944zm20.841 0c50.572-50.645 110.612-84.713 183.237-103.879 12.723 22.163 12.251 49.427-9.779 58.657-17.743 7.432-24.612 28.497-15.688 45.223h-157.77zm48.167 123.796c-2.503 7.245-9.334 12.113-16.999 12.113-12.349 0-21.047-12.141-16.999-23.857l33.528-97.053h38.056zm109.02-85.019c-2.176 2.524-3.908 5.296-5.205 8.214h-61.413l11.052-31.993h68.428c1.347 1.381 2.729 2.734 4.126 4.074zm109.663 89.582c-8.506 11.94-26.901 9.173-31.646-4.564l-17.032-49.301 18.964-16.349c5.011 1.817 10.04 3.386 15.07 4.707l16.996 49.198c1.924 5.569 1.067 11.512-2.352 16.309zm123.913-125.578c-25.874 43.734-83.509 61.217-140.404 43.965l22.602-19.486c3.136-2.705 3.487-7.439.783-10.577-2.704-3.136-7.439-3.486-10.577-.783-21.121 18.209-42.309 36.475-68.358 58.933-7.344 6.331-18.469 5.922-25.326-.936-6.857-6.857-7.269-17.981-.936-25.326l117.348-136.118c1.525-1.768 3.47-3.18 5.626-4.082l18.397-7.695 32.785 32.785-7.695 18.396c-.902 2.157-2.314 4.102-4.083 5.627l-41.042 35.382c-3.136 2.705-3.487 7.439-.783 10.577 2.704 3.137 7.438 3.487 10.577.783l41.041-35.382c3.521-3.035 6.331-6.906 8.127-11.198l6.819-16.303c7.409 1.594 14.712-.636 19.947-5.486 7.529-6.975 9.008-17.615 5.076-25.981 4.789-1.125 9.243-2.729 13.334-4.83 14.728 33.923 13.654 69.149-3.258 97.735z"/><path d="m94.054 143.285c0 19.133 15.566 34.7 34.7 34.7 19.133 0 34.7-15.566 34.7-34.7s-15.566-34.7-34.7-34.7-34.7 15.567-34.7 34.7zm34.7-19.702c10.863 0 19.702 8.838 19.702 19.702s-8.838 19.702-19.702 19.702-19.702-8.838-19.702-19.702 8.838-19.702 19.702-19.702z"/></g></g></svg>