<svg height="512pt" viewBox="-9 0 512 512.06651" width="512pt" xmlns="http://www.w3.org/2000/svg"><path d="m.0351562 264.535156c-.03906245 135.570313 109.0156248 245.929688 244.5742188 247.515625 135.5625 1.582031 247.164063-106.203125 250.292969-241.738281s-103.378906-248.359375-238.867188-253.03125v-.214844h51.199219c4.710937 0 8.53125-3.820312 8.53125-8.53125 0-4.714844-3.820313-8.535156-8.53125-8.535156h-119.46875c-4.710937 0-8.53125 3.820312-8.53125 8.535156 0 4.710938 3.820313 8.53125 8.53125 8.53125h51.199219v.214844c-133.183594 4.730469-238.757813 113.984375-238.9296878 247.253906zm477.8632818 0c.03125 126.140625-101.382813 228.859375-227.515626 230.433594-126.136718 1.578125-230.085937-98.566406-233.210937-224.671875s95.738281-231.277344 221.792969-235.949219v16.851563.214843c-116.070313 4.621094-207.109375 101.265626-204.796875 217.410157 2.308593 116.140625 97.125 209.085937 213.289062 209.085937 116.167969 0 210.980469-92.945312 213.292969-209.085937 2.308594-116.144531-88.726562-212.789063-204.800781-217.410157 0-.078124 0-.136718 0-.214843v-16.851563c123.796875 4.667969 221.792969 106.300782 221.949219 230.1875zm-230.398438-196.269531c108.394531 0 196.265625 87.871094 196.265625 196.269531 0 108.394532-87.871094 196.265625-196.265625 196.265625s-196.265625-87.871093-196.265625-196.265625c.121094-108.347656 87.921875-196.144531 196.265625-196.269531zm0 0"/><path d="m145.101562 199.800781 11.03125 11.03125c2.144532 2.21875 5.316407 3.109375 8.300782 2.328125 2.980468-.78125 5.3125-3.109375 6.09375-6.09375s-.109375-6.15625-2.328125-8.300781l-11.03125-11.03125 11.03125-11.035156c3.234375-3.347657 3.1875-8.671875-.101563-11.960938-3.292968-3.292969-8.617187-3.339843-11.964844-.105469l-11.03125 11.035157-11.035156-11.035157c-3.347656-3.234374-8.671875-3.1875-11.960937.105469-3.292969 3.289063-3.339844 8.613281-.105469 11.960938l11.035156 11.035156-11.035156 11.03125c-2.21875 2.144531-3.109375 5.316406-2.328125 8.300781s3.113281 5.3125 6.097656 6.09375c2.980469.78125 6.15625-.109375 8.296875-2.328125zm0 0"/><path d="m184.234375 187.734375-11.035156 11.03125c-2.21875 2.144531-3.105469 5.316406-2.324219 8.300781.777344 2.984375 3.109375 5.3125 6.09375 6.09375 2.980469.78125 6.15625-.109375 8.296875-2.328125l11.035156-11.03125 11.03125 11.03125c3.351563 3.234375 8.671875 3.1875 11.964844-.101562 3.289063-3.292969 3.335937-8.617188.101563-11.964844l-11.03125-11.03125 11.03125-11.035156c3.234374-3.347657 3.1875-8.671875-.101563-11.960938-3.292969-3.292969-8.613281-3.339843-11.964844-.105469l-11.03125 11.035157-11.035156-11.035157c-2.140625-2.21875-5.316406-3.105468-8.296875-2.328124-2.984375.78125-5.316406 3.113281-6.09375 6.097656-.78125 2.980468.105469 6.15625 2.324219 8.296875zm0 0"/><path d="m93.898438 226.867188-11.03125-11.035157c-3.347657-3.230469-8.671876-3.1875-11.964844.105469-3.289063 3.292969-3.335938 8.613281-.101563 11.960938l11.03125 11.035156-11.03125 11.035156c-2.21875 2.140625-3.109375 5.3125-2.328125 8.296875s3.113282 5.3125 6.09375 6.09375c2.984375.78125 6.15625-.109375 8.300782-2.328125l11.03125-11.03125 11.035156 11.03125c2.140625 2.21875 5.316406 3.109375 8.296875 2.328125 2.984375-.78125 5.316406-3.109375 6.097656-6.09375s-.109375-6.15625-2.328125-8.296875l-11.035156-11.035156 11.035156-11.035156c3.234375-3.347657 3.1875-8.667969-.105469-11.960938-3.289062-3.292969-8.613281-3.335938-11.960937-.105469zm0 0"/><path d="m196.300781 226.867188-11.035156-11.035157c-2.140625-2.214843-5.316406-3.105469-8.296875-2.324219-2.984375.78125-5.316406 3.109376-6.09375 6.09375-.78125 2.984376.105469 6.15625 2.324219 8.296876l11.035156 11.035156-11.035156 11.035156c-2.21875 2.140625-3.105469 5.3125-2.324219 8.296875.777344 2.984375 3.109375 5.3125 6.09375 6.09375 2.980469.78125 6.15625-.109375 8.296875-2.328125l11.035156-11.03125 11.03125 11.03125c2.144531 2.21875 5.316407 3.109375 8.300781 2.328125 2.984376-.78125 5.3125-3.109375 6.09375-6.09375s-.109374-6.15625-2.328124-8.296875l-11.03125-11.035156 11.03125-11.035156c2.21875-2.140626 3.109374-5.3125 2.328124-8.296876-.78125-2.984374-3.109374-5.3125-6.09375-6.09375-2.984374-.78125-6.15625.109376-8.300781 2.324219zm0 0"/><path d="m133.035156 238.933594-11.035156 11.035156c-2.21875 2.140625-3.109375 5.3125-2.328125 8.296875s3.113281 5.3125 6.097656 6.09375c2.980469.78125 6.15625-.109375 8.296875-2.328125l11.035156-11.03125 11.03125 11.03125c2.144532 2.21875 5.316407 3.109375 8.300782 2.328125 2.980468-.78125 5.3125-3.109375 6.09375-6.09375s-.109375-6.15625-2.328125-8.296875l-11.03125-11.035156 11.03125-11.035156c2.21875-2.140626 3.109375-5.3125 2.328125-8.296876-.78125-2.984374-3.113282-5.3125-6.09375-6.09375-2.984375-.78125-6.15625.109376-8.300782 2.324219l-11.03125 11.035157-11.035156-11.035157c-2.140625-2.214843-5.316406-3.105469-8.296875-2.324219-2.984375.78125-5.316406 3.109376-6.097656 6.09375-.78125 2.984376.109375 6.15625 2.328125 8.296876zm0 0"/><path d="m286.632812 238.933594-11.03125 11.035156c-2.21875 2.140625-3.109374 5.3125-2.328124 8.296875s3.109374 5.3125 6.09375 6.09375c2.984374.78125 6.15625-.109375 8.300781-2.328125l11.03125-11.03125 11.035156 11.03125c2.140625 2.21875 5.3125 3.109375 8.296875 2.328125s5.316406-3.109375 6.09375-6.09375c.78125-2.984375-.105469-6.15625-2.324219-8.296875l-11.035156-11.035156 11.035156-11.035156c2.21875-2.140626 3.105469-5.3125 2.324219-8.296876-.777344-2.984374-3.109375-5.3125-6.09375-6.09375s-6.15625.109376-8.296875 2.324219l-11.035156 11.035157-11.03125-11.035157c-2.144531-2.214843-5.316407-3.105469-8.300781-2.324219-2.984376.78125-5.3125 3.109376-6.09375 6.09375-.78125 2.984376.109374 6.15625 2.328124 8.296876zm0 0"/><path d="m235.433594 238.933594-11.035156 11.035156c-2.214844 2.140625-3.105469 5.3125-2.324219 8.296875s3.109375 5.3125 6.09375 6.09375 6.15625-.109375 8.296875-2.328125l11.035156-11.03125 11.035156 11.03125c2.140625 2.21875 5.3125 3.109375 8.296875 2.328125s5.3125-3.109375 6.09375-6.09375-.109375-6.15625-2.324219-8.296875l-11.035156-11.035156 11.035156-11.035156c3.230469-3.347657 3.1875-8.667969-.105468-11.960938-3.292969-3.292969-8.613282-3.335938-11.960938-.105469l-11.035156 11.035157-11.035156-11.035157c-2.140625-2.214843-5.3125-3.105469-8.296875-2.324219s-5.3125 3.109376-6.09375 6.09375c-.78125 2.984376.109375 6.15625 2.324219 8.296876zm0 0"/><path d="m349.898438 226.867188-11.03125-11.035157c-2.144532-2.214843-5.316407-3.105469-8.300782-2.324219-2.980468.78125-5.3125 3.109376-6.09375 6.09375-.78125 2.984376.109375 6.15625 2.328125 8.296876l11.03125 11.035156-11.03125 11.035156c-2.21875 2.140625-3.109375 5.3125-2.328125 8.296875s3.113282 5.3125 6.09375 6.09375c2.984375.78125 6.15625-.109375 8.300782-2.328125l11.03125-11.03125 11.035156 11.03125c2.140625 2.21875 5.316406 3.109375 8.296875 2.328125 2.984375-.78125 5.316406-3.109375 6.097656-6.09375s-.109375-6.15625-2.328125-8.296875l-11.035156-11.035156 11.035156-11.035156c2.21875-2.140626 3.109375-5.3125 2.328125-8.296876-.78125-2.984374-3.113281-5.3125-6.097656-6.09375-2.980469-.78125-6.15625.109376-8.296875 2.324219zm0 0"/><path d="m196.300781 302.199219 11.03125 11.035156c2.144531 2.21875 5.316407 3.105469 8.300781 2.324219 2.984376-.78125 5.3125-3.109375 6.09375-6.09375s-.109374-6.15625-2.328124-8.296875l-11.03125-11.035157 11.03125-11.03125c2.21875-2.144531 3.109374-5.316406 2.328124-8.300781s-3.109374-5.3125-6.09375-6.09375c-2.984374-.78125-6.15625.109375-8.300781 2.328125l-11.03125 11.03125-11.035156-11.03125c-2.140625-2.21875-5.316406-3.109375-8.296875-2.328125-2.984375.78125-5.316406 3.109375-6.09375 6.09375-.78125 2.984375.105469 6.15625 2.324219 8.300781l11.035156 11.03125-11.035156 11.035157c-2.21875 2.140625-3.105469 5.3125-2.324219 8.296875.777344 2.984375 3.109375 5.3125 6.09375 6.09375 2.980469.78125 6.15625-.105469 8.296875-2.324219zm0 0"/><path d="m157.167969 290.132812 11.03125-11.03125c2.21875-2.144531 3.109375-5.316406 2.328125-8.300781s-3.113282-5.3125-6.09375-6.09375c-2.984375-.78125-6.15625.109375-8.300782 2.328125l-11.03125 11.03125-11.035156-11.03125c-3.347656-3.234375-8.671875-3.1875-11.960937.101563-3.292969 3.292969-3.339844 8.613281-.105469 11.964843l11.035156 11.03125-11.035156 11.035157c-2.21875 2.140625-3.109375 5.3125-2.328125 8.296875s3.113281 5.3125 6.097656 6.09375c2.980469.78125 6.15625-.105469 8.296875-2.324219l11.035156-11.035156 11.03125 11.035156c2.144532 2.21875 5.316407 3.105469 8.300782 2.324219 2.980468-.78125 5.3125-3.109375 6.09375-6.09375s-.109375-6.15625-2.328125-8.296875zm0 0"/><path d="m310.765625 290.132812 11.035156-11.03125c2.21875-2.144531 3.105469-5.316406 2.324219-8.300781-.777344-2.984375-3.109375-5.3125-6.09375-6.09375s-6.15625.109375-8.296875 2.328125l-11.035156 11.03125-11.03125-11.03125c-2.144531-2.21875-5.316407-3.109375-8.300781-2.328125-2.984376.78125-5.3125 3.109375-6.09375 6.09375s.109374 6.15625 2.328124 8.300781l11.03125 11.03125-11.03125 11.035157c-2.21875 2.140625-3.109374 5.3125-2.328124 8.296875s3.109374 5.3125 6.09375 6.09375c2.984374.78125 6.15625-.105469 8.300781-2.324219l11.03125-11.035156 11.035156 11.035156c2.140625 2.21875 5.3125 3.105469 8.296875 2.324219s5.316406-3.109375 6.09375-6.09375c.78125-2.984375-.105469-6.15625-2.324219-8.296875zm0 0"/><path d="m221.898438 273.066406c.003906 2.261719.902343 4.433594 2.5 6.035156l11.035156 11.03125-11.035156 11.035157c-2.214844 2.140625-3.105469 5.3125-2.324219 8.296875s3.109375 5.3125 6.09375 6.09375 6.15625-.105469 8.296875-2.324219l11.035156-11.035156 11.035156 11.035156c2.140625 2.21875 5.3125 3.105469 8.296875 2.324219s5.3125-3.109375 6.09375-6.09375-.109375-6.15625-2.324219-8.296875l-11.035156-11.035157 11.035156-11.03125c2.214844-2.144531 3.105469-5.316406 2.324219-8.300781s-3.109375-5.3125-6.09375-6.09375-6.15625.109375-8.296875 2.328125l-11.035156 11.03125-11.035156-11.03125c-2.4375-2.441406-6.109375-3.171875-9.296875-1.851562-3.1875 1.320312-5.265625 4.433594-5.269531 7.882812zm0 0"/><path d="m208.367188 341.332031 11.03125-11.03125c2.21875-2.144531 3.109374-5.316406 2.328124-8.300781s-3.109374-5.3125-6.09375-6.09375c-2.984374-.78125-6.15625.109375-8.300781 2.328125l-11.03125 11.03125-11.035156-11.03125c-3.347656-3.234375-8.667969-3.1875-11.960937.101563-3.292969 3.292968-3.339844 8.617187-.105469 11.964843l11.035156 11.03125-11.035156 11.035157c-2.21875 2.140624-3.105469 5.316406-2.324219 8.296874.777344 2.984376 3.109375 5.316407 6.09375 6.097657 2.980469.777343 6.15625-.109375 8.296875-2.328125l11.035156-11.035156 11.03125 11.035156c2.144531 2.21875 5.316407 3.105468 8.300781 2.328125 2.984376-.78125 5.3125-3.113281 6.09375-6.097657.78125-2.980468-.109374-6.15625-2.328124-8.296874zm0 0"/><path d="m298.699219 329.265625-11.03125-11.03125c-2.144531-2.21875-5.316407-3.109375-8.300781-2.328125-2.984376.78125-5.3125 3.109375-6.09375 6.09375s.109374 6.15625 2.328124 8.300781l11.03125 11.03125-11.03125 11.035157c-2.21875 2.140624-3.109374 5.316406-2.328124 8.296874.78125 2.984376 3.109374 5.316407 6.09375 6.097657 2.984374.777343 6.15625-.109375 8.300781-2.328125l11.03125-11.035156 11.035156 11.035156c3.347656 3.234375 8.667969 3.1875 11.960937-.105469 3.292969-3.289063 3.339844-8.613281.105469-11.960937l-11.035156-11.035157 11.035156-11.03125c2.21875-2.144531 3.105469-5.316406 2.324219-8.300781-.777344-2.984375-3.109375-5.3125-6.09375-6.09375s-6.15625.109375-8.296875 2.328125zm0 0"/><path d="m259.566406 341.332031 11.035156-11.03125c2.214844-2.144531 3.105469-5.316406 2.324219-8.300781s-3.109375-5.3125-6.09375-6.09375-6.15625.109375-8.296875 2.328125l-11.035156 11.03125-11.035156-11.03125c-2.140625-2.21875-5.3125-3.109375-8.296875-2.328125s-5.3125 3.109375-6.09375 6.09375.109375 6.15625 2.324219 8.300781l11.035156 11.03125-11.035156 11.035157c-2.214844 2.140624-3.105469 5.316406-2.324219 8.296874.78125 2.984376 3.109375 5.316407 6.09375 6.097657 2.984375.777343 6.15625-.109375 8.296875-2.328125l11.035156-11.035156 11.035156 11.035156c2.140625 2.21875 5.3125 3.105468 8.296875 2.328125 2.984375-.78125 5.3125-3.113281 6.09375-6.097657.78125-2.980468-.109375-6.15625-2.324219-8.296874zm0 0"/><path d="m247.5 380.46875-11.035156-11.035156c-3.347656-3.234375-8.667969-3.1875-11.960938.105468-3.292968 3.289063-3.335937 8.613282-.105468 11.960938l11.035156 11.035156-11.035156 11.03125c-2.214844 2.144532-3.105469 5.316406-2.324219 8.300782.78125 2.980468 3.109375 5.3125 6.09375 6.09375s6.15625-.109376 8.296875-2.328126l11.035156-11.035156 11.035156 11.035156c3.347656 3.234376 8.667969 3.1875 11.960938-.105468 3.292968-3.289063 3.335937-8.613282.105468-11.960938l-11.035156-11.03125 11.035156-11.035156c2.214844-2.144531 3.105469-5.316406 2.324219-8.300781-.78125-2.980469-3.109375-5.3125-6.09375-6.09375s-6.15625.109375-8.296875 2.328125zm0 0"/><path d="m349.898438 278.066406-11.03125-11.03125c-2.144532-2.21875-5.316407-3.109375-8.300782-2.328125-2.980468.78125-5.3125 3.109375-6.09375 6.09375s.109375 6.15625 2.328125 8.300781l11.03125 11.03125-11.03125 11.035157c-2.21875 2.140625-3.109375 5.3125-2.328125 8.296875s3.113282 5.3125 6.09375 6.09375c2.984375.78125 6.15625-.105469 8.300782-2.324219l11.03125-11.035156 11.035156 11.035156c3.347656 3.234375 8.671875 3.1875 11.960937-.105469 3.292969-3.292968 3.339844-8.613281.105469-11.960937l-11.035156-11.035157 11.035156-11.03125c2.21875-2.144531 3.109375-5.316406 2.328125-8.300781s-3.113281-5.3125-6.097656-6.09375c-2.980469-.78125-6.15625.109375-8.296875 2.328125zm0 0"/><path d="m389.035156 238.933594-11.035156 11.035156c-2.21875 2.140625-3.109375 5.3125-2.328125 8.296875s3.113281 5.3125 6.097656 6.09375c2.980469.78125 6.15625-.109375 8.296875-2.328125l11.035156-11.03125 11.03125 11.03125c3.347657 3.234375 8.671876 3.191406 11.964844-.101562 3.289063-3.292969 3.335938-8.613282.101563-11.960938l-11.03125-11.035156 11.03125-11.035156c3.234375-3.347657 3.1875-8.667969-.101563-11.960938-3.292968-3.292969-8.617187-3.335938-11.964844-.105469l-11.03125 11.035157-11.035156-11.035157c-2.140625-2.214843-5.316406-3.105469-8.296875-2.324219-2.984375.78125-5.316406 3.109376-6.097656 6.09375-.78125 2.984376.109375 6.15625 2.328125 8.296876zm0 0"/><path d="m298.699219 199.800781 11.035156 11.03125c2.140625 2.21875 5.3125 3.109375 8.296875 2.328125s5.316406-3.109375 6.09375-6.09375c.78125-2.984375-.105469-6.15625-2.324219-8.300781l-11.035156-11.03125 11.035156-11.035156c3.234375-3.347657 3.1875-8.671875-.105469-11.960938-3.292968-3.292969-8.613281-3.339843-11.960937-.105469l-11.035156 11.035157-11.03125-11.035157c-3.351563-3.234374-8.671875-3.1875-11.964844.105469-3.289063 3.289063-3.335937 8.613281-.101563 11.960938l11.03125 11.035156-11.03125 11.03125c-2.21875 2.144531-3.109374 5.316406-2.328124 8.300781s3.109374 5.3125 6.09375 6.09375c2.984374.78125 6.15625-.109375 8.300781-2.328125zm0 0"/><path d="m337.832031 187.734375-11.03125 11.03125c-2.21875 2.144531-3.109375 5.316406-2.328125 8.300781s3.113282 5.3125 6.09375 6.09375c2.984375.78125 6.15625-.109375 8.300782-2.328125l11.03125-11.03125 11.035156 11.03125c3.347656 3.234375 8.671875 3.1875 11.960937-.101562 3.292969-3.292969 3.339844-8.617188.105469-11.964844l-11.035156-11.03125 11.035156-11.035156c3.234375-3.347657 3.1875-8.671875-.105469-11.960938-3.289062-3.292969-8.613281-3.339843-11.960937-.105469l-11.035156 11.035157-11.03125-11.035157c-2.144532-2.21875-5.316407-3.105468-8.300782-2.328124-2.980468.78125-5.3125 3.113281-6.09375 6.097656-.78125 2.980468.109375 6.15625 2.328125 8.296875zm0 0"/></svg>