<svg id="Layer_1" enable-background="new 0 0 105 105" height="512" viewBox="0 0 105 105" width="512" xmlns="http://www.w3.org/2000/svg"><g><g><path d="m98.6265869 90.5134354c-4.3099976-.4699707-7.7299805-2.3099976-10.1699829-5.4599609-.1300049-.1699829-.2600098-.3400269-.3699951-.5100098 2.8900146-2.0700073 5.3800049-4.7800293 6.7600098-8.3200073.539978-1.3699951.9199829-2.8800049 1.2199707-4.9099731.9400024-6.25.3500366-12.9500122-1.7099609-19.3699951-1.9100342-5.960022-4.0800171-12.3099976-7.0599976-18.6200562-.0800171-1.419981-.1800537-2.7999859-.3000488-4.0899639 1.5100098-1.5100098 2.0300293-2.0700073 2.1500244-2.2000122 2.9000244 4.6500244 5.039978 9.9299908 5.2700195 10.4899883.0499878.1600342.9499512 3.7300415 2.4499512 7.5200195.210022.5200195.8000488.7600098 1.3000488.5599976.5199585-.2000122.7699585-.7800293.5599976-1.2999878-.8300171-2.0900269-1.6000366-4.4400024-2.2900391-6.9700317l-.0999756-.3800049c-.0100098-.039978-.0200195-.0699463-.039978-.1099854-.1400146-.3599854-2.4700317-6.2299786-5.75-11.3300152.0099487-.0099487.0099487-.0099487.0099487-.0099487 3.25-3.6000366 5.1799927-6.4400024 6-8.7800293 1.1900024-3.3699961-.1499634-5.289979-1.4400024-6.580018-1.2999878-1.2999878-3.2199707-2.6300044-6.5899658-1.4499512-2.7600098.9699707-6.2299805 3.5-10.8400269 7.9199839-.1699829-.1699829-.3399658-.3200073-.5199585-.4700317-3.5599976-3.000001-8.4700317-2.4599619-12.7600098-3.3800058-4.460022-.9799805-9-3.7699585-13.7999878-2.5999756-2.5500488.6300049-4.5700073 2.25-6.5300293 3.8300171l-.2999878.25c-2.2399902 1.7799692-4.5900269 3.5100107-6.9899902 5.1400156-.3699951.2599487-.7600098.5099487-1.0700073.5199585-.0100098 0-.0200195 0-.0200195 0-.3800049 0-.8599854-.3399658-1.3300171-.6599731l-.0999756-.0800171c-4.0100098-2.75-9.3499756-3.4199839-13.9299927-1.7700195-4.5800171 1.6600342-8.25 5.6000366-9.5700073 10.2700195-.6799927 2.4000244-.75 4.880003-.8300171 7.2800274-.0499878 2.0499878-.1099854 3.9899902-.5199585 5.8999634-.3800049 1.7600098-1.0500488 3.5300293-2.1700439 5.7299805-4.8800049 9.5700073-4.0499878 20.9300537 2.1799927 29.6600342 5.3800049 7.539978 13.25 13.9199829 22.1500244 17.9500122.4099731.1900024.8499756.3800049 1.3200073.5799561h-22.5700074c-.5499878 0-1 .4400024-1 1 0 .5500488.4500122 1 1 1h83.6300049c.5599976 0 1-.4499512 1-1 0-.5599976-.4400024-1-1-1h-41.6599731c1.6699829-.6199951 3.3499756-1.3899536 5.0799561-2.3099976 1.9000244-1.0099487 4.0200195-1.4400024 6.1400146-1.2399902 4.3300171.4200439 9.2199707-.2099609 14.5200195-1.8599854 2.6499634-.8200073 5.6300049-2 8.3899536-3.7000122.1400146.210022.2900391.4199829.4500122.6199951 2.7800293 3.6000366 6.6600342 5.7000122 11.5300293 6.2300415.0299683 0 .0700073.0099487.1099854.0099487.5 0 .9299927-.3799438.9899902-.8899536.0599976-.5500491-.3399658-1.0500491-.8800049-1.1100466zm-7.6099853-80.2699576c1.3699951 0 2.0999756.7299805 2.6799927 1.3099976 1.4799805 1.4699707 3.9000244 3.8999634-6.960022 15.0899668-.1199951-1.1099854-.25-2.1199951-.3699951-3 1.9300537-1.9400024 3.5599976-3.9299927 4.6300049-5.6300049 1.3800049-2.2199717 1.6500244-3.7099619.8000488-4.5599985-2.2700195-2.2699585-9.0400391 4.2600107-10.3700562 5.5900278-.8999634.9000244-1.5599976 1.6199951-2.5499878 2.7799683v.0100098c-.8999634 1.0700073-1.6599731 2.0900269-2.25 3.0300293-.8599854 1.3699951-1.289978 2.4699707-1.289978 3.3099976 0 .5100098.1699829.9299927.4899902 1.25s.7399902.4899902 1.25.4899902c2.2000122 0 5.8599854-3.0599976 7.4899902-4.539978.1099854.9499512.2300415 2 .3400269 3.1199951-.0100098 0-.0300293.0199585-.0400391.0299683-.4799805.460022-.9799805.9299927-1.5 1.4100342-1.7699585 1.6099854-3.75 3.2799664-5.8399658 4.9400005-5.460022 4.4099731-13.6099854 10.0599976-19.5499878 13.9499512-1.6600342 1.0900269-3.1400146 2.0400391-4.3699951 2.8200073 7.3899536-11.5599976 12.1199951-18.0099487 16.9899902-24.1900005 3.5899659-4.4799807 14.7600098-17.2099621 20.419983-17.2099621zm-12.4199829 26.3200064c2.0299683-1.6000366 3.9599609-3.2200317 5.7099609-4.8000469.2200317.4300518.8000488 1.5800152.9900513 2.0200176 0 0 .0099487 0 .0099487.0100098.3200073 5.9199829.1900024 12.5299683-1.3200073 17.039978-.2599487.7900391-.539978 1.6600342-.789978 2.5800171v-.0900269c-.0000001-6.1199951-1.6799927-11.8499756-4.5999756-16.7599487zm6.0700073-17.4700298c-.4200439.0700073-.7200317.3800049-.8000488.7700195v.0100098c-.0099487.0100098-.0099487.0199585-.0099487.0299683s0 .0100098 0 .0200195c-.1000366.2799683-.0700073.5800171.0799561.8300171.0700073.4599609.1799927 1.2099609.3099976 2.1799927-.5700073.5599976-1.1199951 1.0599976-1.6399536 1.5100098l-1.3099976-2.3600464c.4599609-.5100098.9799805-1.0599976 1.539978-1.6199951 3.5999756-3.5999756 6.3900146-5.2199717 7.4199829-5.4699717-.2000122.8399658-1.3200073 2.8399668-3.6599731 5.500001-.2700195-.2600098-.5499878-.4899902-.8200073-.7200317-.0100098-.0100098 0-.0199585-.0100098-.0299683-.1500246-.4500123-.6099855-.7300416-1.0999757-.6500245zm-3.6300049 6.6300048c-1.7399902 1.3300171-3.0400391 2.0100098-3.6700439 2.1600342.1700439-.6900024.9500122-2.1800537 2.5500488-4.1700439zm-20.8600464 24.919981c3.5 0 6.5900269 1.6600342 8.1500244 2.6799927-1.5599976 1.0100098-4.6400146 2.6800537-8.1500244 2.6800537-2.6499634 0-5.0599976-.960022-6.7599487-1.8699951 1.3299561-.8400269 3.1499634-2 5.2699585-3.3900146.4800415-.0700074.9800415-.1000367 1.4899902-.1000367zm17.2600098 36.8000489c-5.039978 1.5699463-9.6599731 2.1699829-13.7399902 1.7799683-2.5-.2399902-5.0100098.2700195-7.2600098 1.460022-5.0599976 2.7000122-9.8200073 4.0499878-14.1900024 4.0799561h-.2199707c-1.0700073-.0099487-2.1099854-.0999756-3.1300049-.2599487-2.460022-.4100342-4.7600098-1.3600464-6.5-2.1400146-8.5800171-3.8900146-16.1600342-10.0300293-21.3499756-17.2900391-5.7800293-8.1199951-6.5600586-18.6899414-2.0200195-27.5899658 1.1900024-2.3300171 1.9400024-4.3099976 2.3499756-6.2299805.4400024-2.0800171.5-4.2000122.5599976-6.2600098.0700073-2.3800049.1400146-4.6199932.75-6.7800274 1.1600342-4.0700073 4.3500366-7.5 8.3300171-8.9400024 4.0900269-1.4799805 8.710022-.7999878 12.1099854 1.5400391l.1000366.0599976c.6699829.4799805 1.5 1.0799561 2.5599976 1.0299683.9199829-.039978 1.6799927-.5599976 2.1300049-.8699951 4.2599487-2.8999634 7.3199463-5.3999643 7.4199829-5.4799814 1.7799683-1.4400024 3.6300049-2.9299927 5.75-3.4400024 4.0999756-1.0100098 8.2700195 1.5999756 12.8999634 2.5999756 1.3200073.2900391 2.6900024.4400024 4.0200195.5800171 2.9899902.3300171 5.8099976.6400146 7.8800049 2.3800058.1199951.1099854.25.2199707.3699951.3499756-2.5800171 2.5800171-4.9799805 5.3900146-7.2600098 8.25-5.3099976-3.6699829-11.75-5.8299561-18.6799927-5.8299561-18.1300049 0-32.8800049 14.7499981-32.8800049 32.8799438 0 9.6800537 4.2399902 18.8200073 11.6300049 25.0900269.4199829.3499756 1.0499878.2999878 1.4100342-.1199951.3599854-.4199829.2999878-1.0499878-.1199951-1.4099731-6.9400024-5.8800049-10.9200439-14.4700317-10.9200439-23.5600586 0-17.0299683 13.8500366-30.8799419 30.8800049-30.8799419 6.4700317 0 12.4800415 1.9899902 17.4400024 5.3999634-.8300171 1.0499878-1.6499634 2.1300049-2.4599609 3.210022-4.3100586-2.9000244-9.4800415-4.5599976-14.9800415-4.5599976-14.789978 0-26.8300171 12.0299664-26.8300171 26.8299541 0 14.7900391 12.0400391 26.8300171 26.8300171 26.8300171 14.7900391 0 26.8200073-12.039978 26.8200073-26.8300171 0-.5599976-.4500122-1-1-1s-1 .4400024-1 1c0 13.6900024-11.1400146 24.8300171-24.8200073 24.8300171-13.6900024 0-24.8300171-11.1400146-24.8300171-24.8300171 0-13.6999512 11.1400146-24.8299541 24.8300171-24.8299541 5.0599976 0 9.8200073 1.5199585 13.7900391 4.169981-3.5400391 4.8200073-6.8500366 9.7000122-9.4000244 13.5999756.1799927-.8899536.289978-1.8299561.289978-2.8099976 0-5.7399902-3.75-10.3099976-3.9099731-10.5-.4000244-.4799805-1.1400146-.4799805-1.539978 0-.1600342.1900024-3.9100342 4.7600098-3.9100342 10.5 0 2.6300049.789978 5.0100098 1.6500244 6.8400269-1.8200073-.8599854-4.210022-1.6500244-6.8300171-1.6500244-5.75 0-10.3200073 3.75-10.5100098 3.9100342-.2299805.1900024-.3599854.4699707-.3599854.7699585 0 .2900391.1300049.5700073.3599854.7600098.1900024.1600342 4.7600098 3.9200439 10.5100098 3.9200439 2.6300049 0 5.0200195-.7900391 6.8400269-1.6600342-.8700562 1.8200073-1.6600342 4.210022-1.6600342 6.8400269 0 5.7399902 3.75 10.3099976 3.9100342 10.5.1899414.2299805.4699707.3599854.7699585.3599854s.5800171-.1300049.7700195-.3599854c.1599731-.1900024 3.9099731-4.7600098 3.9099731-10.5 0-2.6300049-.789978-5.0200195-1.6599731-6.8400269 1.8200073.8699951 4.210022 1.6600342 6.8399658 1.6600342 5.75 0 10.3099976-3.7600098 10.5100098-3.9200439.2200317-.1900024.3600464-.4699707.3600464-.7600098 0-.2999878-.1400146-.5799561-.3600464-.7699585-.1799927-.1500244-3.9599609-3.25-8.9599609-3.8200073 3.1999512-2.1400146 6.8099976-4.6199951 10.4099731-7.2600098.9899902 1.8200073 1.7600098 3.7800293 2.2700195 5.8699951.1400146.5400391.6799927.8599854 1.2099609.7299805.5400391-.1299438.8699951-.6699829.7300415-1.2099609-.5800171-2.3400269-1.460022-4.5499878-2.5900269-6.5800171 1.1000366-.8200073 2.1900024-1.6400146 3.2600098-2.4799805 2.6500244 4.5700073 4.1799927 9.8699951 4.1799927 15.5199585 0 17.0200195-13.8499756 30.8800049-30.8800049 30.8800049-5.5100098 0-10.9199829-1.4699707-15.6400146-4.25-.4799805-.2799683-1.0899658-.1300049-1.3699951.3500366-.2799683.4799805-.1199951 1.0899658.3500366 1.3699951 5.0299683 2.960022 10.789978 4.5299683 16.6599731 4.5299683 14.9199829 0 27.5599976-10 31.5599976-23.6499634-.4400024 6.7399902-.0299683 15.1599731 3.4800415 21.4099731-2.6000369 1.5900245-5.4100345 2.7100196-7.9200442 3.4800392zm-27.5100098-31.7900391c.1600342.0900269.3500366.1400146.5300293.1400146.0999756 0 .210022-.0100098.3099976-.039978.9899902 1.6900024 2.2299805 4.3999634 2.2299805 7.4299927 0 3.4899902-1.6699829 6.5899658-2.6799927 8.1499634-1.0199585-1.5599976-2.6799927-4.6399536-2.6799927-8.1499634 0-3.0700073 1.289978-5.8400268 2.289978-7.5300293zm-9.4699707.3500366c-3.5 0-6.5900269-1.6700439-8.1500244-2.6800537 1.5599976-1.0199585 4.6500244-2.6799927 8.1500244-2.6799927 3.4899902 0 6.5800171 1.6600342 8.1400146 2.6799927-1.5499877 1.0100098-4.6400146 2.6800537-8.1400146 2.6800537zm9.8599854-4.4000244c-1.0199585-1.5599976-2.6799927-4.6400146-2.6799927-8.1500244 0-3.4899902 1.6600342-6.5799561 2.6799927-8.1499634 1.0200195 1.5599976 2.6799927 4.6400146 2.6799927 8.1499634-.0000001 3.5-1.669983 6.5900269-2.6799927 8.1500244zm36.7200317 31.25c-4.4899902-8.1799927-3.3200073-20.710022-2.5300293-26.0499878.2800293-1.9100342.8500366-3.7700195 1.3800049-5.3400269 1.1799927-3.5499878 1.5800171-8.2000122 1.5700073-12.8399658 1.9699707 4.7399902 3.5599976 9.4499512 5 13.9299927 1.960022 6.1300049 2.5200195 12.5199585 1.6300049 18.4699707-.2800293 1.8699951-.6199951 3.25-1.1000366 4.4700317-1.1999512 3.0899659-3.3899536 5.4899903-5.9499512 7.3599854z"/><path d="m6.1474609 94.7591019h-1.6142578c-.5527344 0-1 .4472656-1 1s.4472656 1 1 1h1.6142578c.5527344 0 1-.4472656 1-1s-.4472656-1-1-1z"/><path d="m100.4667969 94.7591019h-2.5791016c-.5527344 0-1 .4472656-1 1s.4472656 1 1 1h2.5791016c.5527344 0 1-.4472656 1-1s-.4472656-1-1-1z"/></g></g></svg>