<svg id="Layer_1" enable-background="new 0 0 512 512" height="512" viewBox="0 0 512 512" width="512" xmlns="http://www.w3.org/2000/svg"><g><path d="m326.333 70.333h-140.667c-102.376 0-185.666 83.29-185.666 185.667s83.29 185.667 185.666 185.667h140.667c102.377 0 185.667-83.29 185.667-185.667s-83.29-185.667-185.667-185.667zm93.306 250.385h-27.791l-44.561-70.918v72.497h-30v-132.405l27.791.004 44.561 70.918v-71.112h30zm-191.524-31.47c3.202 2.046 6.753 3.043 10.855 3.049h.04c3.784 0 7.101-.744 10.14-2.275 9.766-4.918 11.083-10.24 11.083-14.797v-85.522h30v85.522c0 17.861-9.798 32.632-27.589 41.591-7.221 3.637-15.173 5.481-23.634 5.481-.027 0-.054 0-.081 0-9.846-.013-18.919-2.627-26.966-7.768-15.274-9.759-23.019-22.958-23.019-39.23v-85.595h30v85.595c0 4.994 1.534 9.07 9.171 13.949zm-67.756-49.212v30h-37.998v51.885h-30v-131.842h71.277v30h-41.277v19.957z"/></g></svg>