<svg id="Capa_1" enable-background="new 0 0 512 512" height="512" viewBox="0 0 512 512" width="512" xmlns="http://www.w3.org/2000/svg"><g><path d="m488.774 44.251c4.142 0 7.501-3.358 7.501-7.501v-14.516c0-12.26-9.975-22.234-22.235-22.234h-220.565c-12.26 0-22.234 9.974-22.234 22.234v161.563c0 16.065 11.412 30.12 27.135 33.42l45.575 9.564c10.289 2.159 17.854 10.574 19.17 20.698-42.12 3.811-53.99 33.837-61.891 41.319-11.4 14.476-27.561 12.088-28.825 12.339v-10.31c0-10.551-8.584-19.134-19.134-19.134h-33.26c-9.089 0-16.702 6.375-18.643 14.884h-121.825c-13.133 0-23.817 10.684-23.817 23.817v136.544c0 13.133 10.684 23.817 23.817 23.817h124.136c3.362 5.515 9.415 9.217 16.333 9.217h33.26c10.551 0 19.134-8.584 19.134-19.134v-5.054h19.741c4.119 0 8.148.773 11.975 2.298 23.543 8.751 30.678 14.012 53.749 18.862 5.574 20.317 24.417 35.056 45.886 35.056 21.498 0 40.177-14.418 45.836-34.802 15.722-8.754 20.684-29.274 10.002-44.121 20.859-8.059 24.76-34.242 10.493-49.476 14.485-10.064 17.298-29.443 7.021-43.111 29.729-13.726 19.639-58.113-12.753-58.113l-19.125-.016-1.045-30.983c-.348-11.823 7.802-22.168 19.378-24.597l45.575-9.564c15.723-3.3 27.135-17.355 27.135-33.42v-111.932c0-4.142-3.358-7.501-7.501-7.501-4.142 0-7.501 3.358-7.501 7.501v93.762h-235.03v-143.393c0-3.988 3.245-7.233 7.233-7.233h17.381v96.036c0 14.633 11.489 26.501 26.07 26.501 14.31 0 26.041-11.577 26.041-26.056v-45.341c0-6.095 4.959-11.054 11.055-11.054s11.055 4.959 11.055 11.054v2.669c0 14.367 11.688 26.056 26.056 26.056 14.367 0 26.055-11.688 26.055-26.056v-53.809h76.853c3.988 0 7.233 3.245 7.233 7.233v14.516c-.001 4.143 3.358 7.501 7.5 7.501zm-271.37 416.586c0 2.279-1.854 4.133-4.133 4.133h-33.26c-1.985 0-3.645-1.407-4.042-3.276-.061-.289-.092-.578-.092-.858v-28.589c0-4.142-3.358-7.501-7.501-7.501s-7.501 3.358-7.501 7.501v23.505h-121.332c-4.861 0-8.816-3.955-8.816-8.816v-136.542c0-4.861 3.955-8.816 8.816-8.816h121.334v95.608c0 4.142 3.358 7.501 7.501 7.501s7.501-3.358 7.501-7.501v-106.359c0-2.279 1.854-4.133 4.134-4.133h33.26c2.279 0 4.133 1.854 4.133 4.133v170.01zm146.353 36.162c-12.232 0-23.216-6.986-28.761-17.34 13.579 1.468 19.075.836 56.83 1.318-5.725 9.689-16.277 16.022-28.069 16.022zm76.093-184.169c0 8.521-6.953 15.452-15.499 15.452h-8.958c-9.431 0-10.251 14.044-.84 15.104 7.942.895 13.953 7.872 13.686 15.885-.275 8.225-7.472 14.917-16.048 14.917l-3.117.001c-9.716.005-10.031 14.642-.288 15.02 18.928.735 20.304 30.884-.064 30.884h-4.895c-9.208 0-11.78 12.726-3.272 16.289 15.978 6.701 10.827 29.615-5.677 29.617-38.084-.748-48.868.842-69.419-2.863-.086-.015-.17-.033-.257-.045-23.76-4.323-33.967-11.035-55.528-18.946-5.601-2.232-11.498-3.363-17.527-3.363h-19.741v-124.644c1.161-.242 24.263 2.698 40.61-18.059 8.171-8 16.972-31.783 49.935-35.524l-.395 11.672c-.003.083-.004.167-.004.251-.004 12.538 10.13 22.835 22.895 22.835l78.903.064c8.547.001 15.5 6.933 15.5 15.453zm41.423-132.202v3.169c0 9.008-6.398 16.889-15.215 18.738l-45.575 9.564c-18.693 3.923-31.853 20.627-31.29 39.752l1.028 30.498-44.769-.036c-4.345 0-7.844-3.419-7.9-7.725.054-1.583-.194 5.73.77-22.768.562-19.093-12.598-35.797-31.291-39.72l-45.575-9.564c-8.816-1.85-15.215-9.731-15.215-18.738v-3.169h235.032zm-99.087-111.819c0 14.631-22.109 14.613-22.109 0v-2.669c0-14.367-11.688-26.055-26.056-26.055-14.367 0-26.056 11.688-26.056 26.055v45.342c0 6.259-5.178 11.274-11.464 11.047-5.87-.209-10.644-5.364-10.644-11.492v-96.036h96.329z"/></g></svg>