<svg height="409pt" viewBox="0 -20 409.6 409" width="409pt" xmlns="http://www.w3.org/2000/svg"><path d="m402.773438.300781h-307.199219c-3.769531 0-6.828125 3.054688-6.828125 6.824219v232.101562c0 .789063.160156 1.53125.40625 2.234376-5.816406 2.738281-11.320313 6.03125-16.425782 9.835937l-27.851562-59.457031c5.945312-5.011719 9.738281-12.503906 9.738281-20.875 0-15.054688-12.25-27.304688-27.304687-27.304688-15.058594 0-27.308594 12.25-27.308594 27.304688 0 15.058594 12.25 27.308594 27.308594 27.308594 1.796875 0 3.554687-.1875 5.257812-.519532l29.433594 62.839844c-17.210938 17.292969-27.867188 41.117188-27.867188 67.386719v34.132812c0 3.769531 3.058594 6.828125 6.828126 6.828125h177.492187c3.769531 0 6.828125-3.058594 6.828125-6.828125v-27.304687h177.492188c3.769531 0 6.828124-3.058594 6.828124-6.828125v-320.855469c0-3.769531-3.058593-6.824219-6.828124-6.824219zm-389.121094 170.664063c0-7.527344 6.125-13.652344 13.65625-13.652344 7.527344 0 13.652344 6.125 13.652344 13.652344 0 7.53125-6.125 13.65625-13.652344 13.65625-7.53125 0-13.65625-6.125-13.65625-13.65625zm273.925781 150.1875c-.078125-.074219-.132813-.164063-.210937-.234375l-30.203126-27.820313 47.28125-51.328125 44.375 40.90625-35.132812 38.476563zm-28.164063-150.1875c0-1.378906-.136718-2.726563-.335937-4.050782l43.757813-47.1875c.054687-.054687.117187-.089843.167968-.148437.0625-.066406.109375-.148437.171875-.21875l44.765625-48.277344 48.003906 43.828125v7.363282l-148.820312 161.578124-42.339844-39 18.355469-39.1875 6.949219-7.496093c.671875.050781 1.335937.105469 2.015625.105469 15.058593 0 27.308593-12.25 27.308593-27.308594zm136.53125-74.539063-38.722656-35.355469 38.722656-41.757812zm-48.804687-44.5625-41.519531-37.910156h76.671875zm-9.285156 10.011719-40.140625 43.289062-47.984375-45.464843 39.167969-42.527344zm-105.75 122.746094c-7.527344 0-13.652344-6.125-13.652344-13.65625 0-7.527344 6.125-13.652344 13.652344-13.652344 7.53125 0 13.65625 6.125 13.65625 13.652344 0 7.53125-6.125 13.65625-13.65625 13.65625zm-17.566407 7.21875-2.863281 6.113281-26.628906 28.71875-37.792969-34.8125c5.957032-5.011719 9.757813-12.511719 9.757813-20.894531 0-3.132813-.554688-6.128906-1.53125-8.9375l28.675781-31.136719 25.96875 23.941406c-3.328125 4.527344-5.324219 10.097657-5.324219 16.132813 0 8.371094 3.792969 15.863281 9.738281 20.875zm-98.484374-20.875c0-7.527344 6.121093-13.652344 13.652343-13.652344 4.96875 0 9.3125 2.675781 11.699219 6.652344.117188.21875.230469.4375.375.640625 1.003906 1.902343 1.582031 4.0625 1.582031 6.359375 0 7.53125-6.125 13.65625-13.65625 13.65625-7.527343 0-13.652343-6.125-13.652343-13.65625zm31.570312-20.554688c-4.800781-4.191406-11.058594-6.75-17.917969-6.75-9.183593 0-17.304687 4.570313-22.257812 11.542969l-5.050781-4.652344v-40.976562l26.792968-29.347657 44.929688 41.417969zm-45.226562-61.085937v-33.796875l16.757812 15.445312zm0 81.640625v-1.898438c.03125.023438.066406.046875.09375.070313-.039063.605469-.09375 1.210937-.09375 1.828125 0 7.664062 3.183593 14.589844 8.285156 19.554687l-8.285156 8.992188zm34.136718 29.578125 39.230469 36.136719-4.753906 5.125c-10.566407-5.085938-22.210938-8.257813-34.476563-9.128907zm49.269532 45.386719 2.371093 2.183593-1.492187 3.1875c-1.15625-.863281-2.332032-1.703125-3.527344-2.511719zm12.90625 11.886718 39.167968 36.078125-14.402344 15.636719c-3.710937-18.886719-12.988281-35.796875-26.066406-48.9375zm49.207031 45.324219 19.558593 18.011719h-36.148437zm65.773437-71.414063 45.546875-49.453124 35.488281 33.621093-.207031 16.730469-36.496093 39.96875zm80.570313 21.425782-.660157 52.234375-25.535156-23.542969zm1.683593-54.914063-27.449218-26.011719 27.449218-29.804687zm-156.121093-147.929687-38.371094-36.355469h71.855469zm-137.425781-36.355469h79.199218l106.832032 101.222656-35.445313 38.222657c-5.015625-5.945313-12.507813-9.738282-20.878906-9.738282-4.023438 0-7.835938.898438-11.277344 2.46875l-118.429687-109.171875zm0 205.703125 20.480468-22.234375v35.257813c-7.0625.5-13.917968 1.761718-20.480468 3.722656zm-34.160157 54.253906 7.5 16.007813c1.164063 2.476562 3.617188 3.929687 6.183594 3.929687.972656 0 1.957031-.207031 2.894531-.644531 3.414063-1.601563 4.882813-5.664063 3.285156-9.078125l-9.4375-20.148438c12.34375-9.863281 27.578126-16.234374 44.214844-17.613281v20.175781c0 3.769532 3.058594 6.828126 6.828125 6.828126s6.828125-3.058594 6.828125-6.828126v-20.175781c16.636719 1.378907 31.871094 7.75 44.210938 17.613281l-9.4375 20.148438c-1.597656 3.414062-.125 7.480469 3.289062 9.078125.9375.4375 1.921875.644531 2.890625.644531 2.570313 0 5.023438-1.453125 6.1875-3.929687l7.5-16.007813c11.304688 12.835938 18.671875 29.214844 20.167969 47.242188h-163.273438c1.496094-18.027344 8.863282-34.40625 20.167969-47.242188zm143.386719 81.375h-163.839844v-20.476562h163.839844zm147.230469-63.355468 31.707031 29.222656h-58.390625zm0 0"/></svg>