<svg id="Capa_1" enable-background="new 0 0 512 512" height="512" viewBox="0 0 512 512" width="512" xmlns="http://www.w3.org/2000/svg"><g><path d="m384.199 0v15.002h89.951v481.995h-389.937v-105.955h44.588v-45.007h-44.588v-29.941h44.588v-45.007h-44.588v-29.941h44.588v-45.007h-44.588v-29.941h44.588v-45.007h-44.588v-106.189h284.983v-15.002h-299.985v121.189h-46.363v45.007h46.363v29.941h-46.363v45.007h46.363v29.941h-46.363v45.007h46.363v29.941h-46.363v45.007h46.363v120.96h419.942v-512zm-346.349 136.192h75.949v15.002h-75.949zm0 74.949h75.949v15.002h-75.949zm0 74.948h75.949v15.002h-75.949zm0 74.948h75.949v15.003h-75.949z"/><path d="m444.208 68.587h-180.028v180.028h180.028zm-165.025 15.002h150.023v30.459c-64.228 3.751-115.813 55.337-119.564 119.564h-30.459zm45.49 150.023c3.709-55.952 48.58-100.823 104.532-104.532v104.532z"/><path d="m204.169 443.645h120.019v-38.025l40.328-40.328.135-.139c16.763-17.652 12.475-39.888-.426-52.729-9.936-9.89-25.418-14.641-40.037-8.615v-40.192h-180.028v180.028h45.006v-15.002h-30.004v-150.024h150.023v25.19c-14.623-6.03-30.106-1.276-40.041 8.618-12.901 12.848-17.187 35.085-.421 52.728l40.462 40.465v23.022h-105.016zm75.562-120.588c11.759-11.053 24.773-8.709 36.956 4.979 12.233-13.714 25.154-16.027 36.954-4.979 7.737 7.701 10.787 20.481.193 31.7l-37.149 37.149-37.15-37.151c-10.593-11.211-7.541-23.991.196-31.698z"/><path d="m309.414 143.826h15.003v-15.003h15.002v-15.002h-15.002v-15.003h-15.003v15.003h-15.002v15.002h15.002z"/><path d="m189.312 113.019v10.959c0 14.955-12.167 27.122-27.122 27.122h-10.959v15.002h10.959c14.955 0 27.122 12.167 27.122 27.122v10.959h15.002v-10.959c0-14.955 12.167-27.122 27.122-27.122h10.959v-15.002h-10.959c-14.955 0-27.122-12.167-27.122-27.122v-10.959zm18.155 45.582c-4.154 2.885-7.769 6.499-10.654 10.653-2.885-4.154-6.499-7.768-10.654-10.653 4.155-2.885 7.769-6.499 10.654-10.653 2.885 4.153 6.5 7.767 10.654 10.653z"/><path d="m384.199 398.508h45.007v15.002h-45.007z"/><path d="m354.194 428.513h75.012v15.002h-75.012z"/><path d="m174.164 293.49h15.002v15.002h-15.002z"/><path d="m204.169 293.49h15.002v15.002h-15.002z"/><path d="m354.194 398.508h15.002v15.002h-15.002z"/></g></svg>