<svg id="sew-machine" enable-background="new 0 0 300 300" height="512" viewBox="0 0 300 300" width="512" xmlns="http://www.w3.org/2000/svg"><g><path d="m54 146c1.023 0 2.047-.391 2.828-1.172 1.562-1.562 1.562-4.094 0-5.656l-3.172-3.172 3.172-3.172c1.562-1.562 1.562-4.094 0-5.656s-4.094-1.562-5.656 0l-3.172 3.172-3.172-3.172c-1.562-1.562-4.094-1.562-5.656 0s-1.562 4.094 0 5.656l3.172 3.172-3.172 3.172c-1.562 1.562-1.562 4.094 0 5.656.781.781 1.805 1.172 2.828 1.172s2.047-.391 2.828-1.172l3.172-3.172 3.172 3.172c.781.781 1.805 1.172 2.828 1.172z"/><path d="m142.298 181.169c0-2.361-1.915-4.276-4.277-4.276s-4.276 1.915-4.276 4.276c0 2.362 1.915 4.277 4.276 4.277s4.277-1.915 4.277-4.277z"/><path d="m122.021 69.446c2.362 0 4.277-1.915 4.277-4.277 0-2.361-1.915-4.276-4.277-4.276s-4.276 1.915-4.276 4.276c0 2.362 1.914 4.277 4.276 4.277z"/><path d="m208 162c14.336 0 26-11.664 26-26s-11.664-26-26-26-26 11.664-26 26 11.664 26 26 26zm0-8c-3.514 0-6.771-1.051-9.544-2.799l24.745-24.745c1.748 2.774 2.799 6.03 2.799 9.544 0 9.926-8.074 18-18 18zm0-36c3.514 0 6.771 1.051 9.544 2.799l-24.745 24.745c-1.748-2.774-2.799-6.03-2.799-9.544 0-9.926 8.074-18 18-18z"/><path d="m258 94h-8v-12c0-2.211-1.791-4-4-4h-12v-8-16-4c0-2.211-1.791-4-4-4s-4 1.789-4 4h-32c0-2.211-1.791-4-4-4s-4 1.789-4 4v4 16 8h-20v-36c0-2.211-1.791-4-4-4s-4 1.789-4 4v36h-80c-2.209 0-4 1.789-4 4v59.023c0 9.025 7.101 16.36 16 16.878v8.099c0 2.211 1.791 4 4 4h4v36c0 2.211 1.791 4 4 4s4-1.789 4-4v-36h4c2.209 0 4-1.789 4-4v-8h3.023c9.361 0 16.977-7.617 16.977-16.977v-3.023h32v84h-88c-7.433 0-13.643 5.118-15.432 12h-4.568c-2.209 0-4 1.789-4 4v20c0 2.211 1.791 4 4 4h188c2.209 0 4-1.789 4-4v-96h8c2.209 0 4-1.789 4-4v-60c0-2.211-1.791-4-4-4zm-32-36v8h-32v-8zm-32 16h32v4h-32zm48 12v8h-160v-8zm-136 76h-8v-4h8zm24-32c-2.209 0-4 1.789-4 4v7.023c0 4.949-4.027 8.977-8.977 8.977h-26.046c-4.949 0-8.977-4.027-8.977-8.977v-39.023h160v132h-68v-100c0-2.211-1.791-4-4-4zm-52 100h88v4h-94.887c1.388-2.379 3.939-4 6.887-4zm-16 24v-12h180v12zm192-100h-4v-52h4z"/></g></svg>