<svg id="Capa_1" enable-background="new 0 0 512 512" height="512" viewBox="0 0 512 512" width="512" xmlns="http://www.w3.org/2000/svg"><g><path d="m420.41 0h-328.819c-16.868 0-30.591 13.724-30.591 30.594v450.812c0 16.869 13.723 30.594 30.591 30.594h239.377v-15.002h-239.377c-8.597 0-15.591-6.995-15.591-15.592v-450.812c0-8.598 6.994-15.592 15.591-15.592h92.384l22.907 30.992h63.783v-15.002h-56.217l-11.819-15.991h106.37l-12.069 15.991h-11.264v15.002h18.736l23.391-30.992h92.618c8.597 0 15.59 6.994 15.59 15.592v450.812c0 8.598-6.994 15.592-15.59 15.592h-44.441v15.002h44.441c16.868 0 30.59-13.725 30.59-30.594v-450.812c-.001-16.87-13.724-30.594-30.591-30.594z"/><path d="m345.968 496.998h15v15.002h-15z"/><path d="m233.165 458.575c0 12.408 10.093 22.502 22.5 22.502s22.5-10.094 22.5-22.502-10.093-22.502-22.5-22.502-22.5 10.094-22.5 22.502zm30 0c0 4.136-3.364 7.501-7.5 7.501s-7.5-3.365-7.5-7.501 3.364-7.501 7.5-7.501 7.5 3.365 7.5 7.501z"/><path d="m248.409 285.659v-44.888c0-16.544-13.458-30.003-30-30.003s-30 13.459-30 30.003v44.888h15v-14.949h30v14.948h15zm-45-29.95v-14.938c0-8.272 6.729-15.002 15-15.002s15 6.73 15 15.002v14.938z"/><path d="m323.591 285.659v-29.727c0-16.555-13.468-30.025-30.021-30.025s-30.021 13.469-30.021 30.025 13.468 30.025 30.021 30.025c5.471 0 10.6-1.478 15.021-4.046v3.748zm-30.021-14.704c-8.283 0-15.021-6.739-15.021-15.023s6.739-15.023 15.021-15.023 15.021 6.739 15.021 15.023c0 8.283-6.738 15.023-15.021 15.023z"/><path d="m143.468 196.297h15v-52.804h195v225.024h-195v-157.283h-15v172.284h225v-255.026h-225z"/><path d="m91.032 30.982h15v15.002h-15z"/><path d="m121 30.982h15v15.002h-15z"/><path d="m173.468 158.484h15v15.002h-15z"/></g></svg>